<svg width="279" height="102" viewBox="0 0 279 102" fill="none" xmlns="http://www.w3.org/2000/svg">
<path d="M229.629 80.148C228.881 80.148 228.264 80.0759 227.779 79.9317C227.296 79.7836 226.919 79.5787 226.646 79.3167C226.376 79.0548 226.186 78.7474 226.076 78.3944C225.966 78.0413 225.911 77.658 225.911 77.2442V74.4372C225.911 74.012 225.964 73.6192 226.07 73.2586C226.181 72.8942 226.37 72.5772 226.64 72.3077C226.913 72.0382 227.291 71.8294 227.773 71.6814C228.259 71.5295 228.877 71.4536 229.629 71.4536C230.358 71.4536 230.948 71.5239 231.4 71.6643C231.855 71.8047 232.203 72.0021 232.442 72.2565C232.685 72.5108 232.85 72.8088 232.937 73.1504C233.028 73.492 233.074 73.864 233.074 74.2664V74.3973L231.411 74.5226V74.1866C231.411 73.8109 231.35 73.5224 231.229 73.3212C231.108 73.1162 230.916 72.9758 230.654 72.8999C230.392 72.8201 230.05 72.7803 229.629 72.7803C229.212 72.7803 228.851 72.822 228.547 72.9055C228.247 72.9853 228.016 73.1314 227.853 73.344C227.689 73.5527 227.608 73.8507 227.608 74.2379V77.415C227.608 77.7984 227.687 78.0926 227.847 78.2976C228.01 78.4987 228.242 78.6373 228.542 78.7132C228.845 78.7853 229.208 78.8214 229.629 78.8214C230.058 78.8214 230.415 78.7853 230.699 78.7132C230.984 78.6373 231.197 78.4987 231.337 78.2976C231.481 78.0926 231.554 77.7984 231.554 77.415V76.8001H229.857V75.6898H233.079V80H232.186L231.918 79.0321C231.895 79.1004 231.848 79.1953 231.776 79.3167C231.703 79.4382 231.586 79.5635 231.423 79.6925C231.259 79.8178 231.034 79.9241 230.745 80.0114C230.457 80.1025 230.085 80.148 229.629 80.148ZM234.134 73.8849H235.682V74.6137C235.774 74.4543 235.933 74.3138 236.161 74.1923C236.392 74.0671 236.656 73.9703 236.952 73.902C237.248 73.8298 237.544 73.7938 237.84 73.7938L237.806 75.109C237.609 75.1204 237.394 75.1451 237.163 75.1831C236.931 75.221 236.707 75.2723 236.491 75.3368C236.278 75.4013 236.098 75.481 235.95 75.5759C235.802 75.6708 235.713 75.779 235.682 75.9005V80H234.134V73.8849ZM240.386 80.131C239.745 80.131 239.229 80.0512 238.838 79.8918C238.451 79.7286 238.17 79.4989 237.995 79.2029C237.82 78.9068 237.733 78.5557 237.733 78.1495V75.741C237.733 75.3235 237.838 74.9667 238.046 74.6706C238.255 74.3745 238.557 74.1487 238.952 73.9931C239.35 73.8336 239.828 73.7539 240.386 73.7539C240.944 73.7539 241.421 73.8336 241.816 73.9931C242.21 74.1487 242.512 74.3745 242.721 74.6706C242.933 74.9667 243.04 75.3235 243.04 75.741V78.1495C243.04 78.5519 242.956 78.903 242.789 79.2029C242.622 79.4989 242.345 79.7286 241.958 79.8918C241.575 80.0512 241.051 80.131 240.386 80.131ZM240.386 79.0548C240.717 79.0548 240.982 78.9941 241.184 78.8726C241.389 78.7474 241.491 78.5291 241.491 78.2178V75.6727C241.491 75.3615 241.394 75.1451 241.201 75.0236C241.007 74.8984 240.736 74.8357 240.386 74.8357C240.052 74.8357 239.785 74.8984 239.584 75.0236C239.382 75.1451 239.282 75.3615 239.282 75.6727V78.2178C239.282 78.5291 239.377 78.7474 239.567 78.8726C239.756 78.9941 240.03 79.0548 240.386 79.0548ZM245.574 80.131C245.183 80.131 244.846 80.0531 244.561 79.8975C244.28 79.7419 244.062 79.5293 243.906 79.2598C243.754 78.9903 243.678 78.6847 243.678 78.3431V73.8849H245.227V78.0926C245.227 78.3052 245.28 78.476 245.386 78.605C245.493 78.7303 245.626 78.8214 245.785 78.8783C245.944 78.9353 246.104 78.9637 246.263 78.9637C246.453 78.9637 246.641 78.9315 246.827 78.8669C247.013 78.8024 247.167 78.6999 247.288 78.5595C247.413 78.419 247.476 78.2349 247.476 78.0072V73.8849H249.025V80H247.567L247.522 79.3281C247.4 79.5825 247.152 79.7798 246.776 79.9203C246.4 80.0607 246 80.131 245.574 80.131ZM249.92 82.3345V73.8849H251.001L251.155 74.2834C251.356 74.1354 251.601 74.0101 251.89 73.9077C252.178 73.8052 252.503 73.7539 252.863 73.7539C253.581 73.7539 254.141 73.9361 254.543 74.3005C254.945 74.6611 255.147 75.1356 255.147 75.724V78.1438C255.147 78.493 255.057 78.8195 254.879 79.1232C254.701 79.423 254.425 79.666 254.053 79.852C253.685 80.038 253.213 80.131 252.636 80.131C252.393 80.131 252.174 80.1082 251.981 80.0626C251.787 80.0209 251.616 79.9677 251.468 79.9032V82.3345H249.92ZM252.505 79.0548C252.858 79.0548 253.127 78.9865 253.313 78.8499C253.503 78.7132 253.598 78.4892 253.598 78.178V75.7012C253.598 75.3937 253.505 75.1736 253.319 75.0407C253.137 74.9041 252.882 74.8357 252.556 74.8357C252.393 74.8357 252.239 74.8547 252.095 74.8927C251.95 74.9306 251.825 74.9781 251.719 75.035C251.613 75.092 251.529 75.1508 251.468 75.2115V78.7872C251.563 78.848 251.696 78.9087 251.867 78.9694C252.042 79.0264 252.254 79.0548 252.505 79.0548Z" fill="#FF6600"/>
<rect x="15.8566" y="11.7342" width="65.1049" height="68.5315" rx="16.2762" stroke="white" stroke-width="1.71329"/>
<path d="M28.7063 36.5769H37.2727V63.9895C37.2727 64.9357 36.5057 65.7028 35.5594 65.7028H30.4196C29.4734 65.7028 28.7063 64.9357 28.7063 63.9895V36.5769Z" fill="white"/>
<path d="M28.7063 29.7238C28.7063 27.8314 30.2404 26.2972 32.1329 26.2972H61.2587L58.0035 28.2009L56.8723 28.8624C55.4595 29.6886 54.1289 30.6479 52.8985 31.7271L52.7168 31.8865C50.5291 33.8056 47.7183 34.8637 44.8082 34.8637H28.7063V29.7238Z" fill="#FF6600"/>
<path d="M67.0468 30.5806C67.4884 29.5557 67.7093 29.0433 67.6065 28.5219C67.5542 28.2566 67.4009 27.9412 67.2246 27.7362C66.8781 27.3333 66.4018 27.2071 65.4493 26.9547C63.1013 26.3324 60.6501 26.1476 58.2195 26.4185C54.8201 26.7974 51.5779 28.0548 48.8119 30.0668C46.0459 32.0789 43.8513 34.7764 42.4441 37.8939C41.0369 41.0114 40.4655 44.4416 40.7861 47.847C41.1067 51.2523 42.3083 54.5155 44.2727 57.3156C46.2371 60.1157 48.8966 62.3562 51.9896 63.8166C55.0825 65.277 58.5024 65.9071 61.9128 65.6448C64.3513 65.4573 66.7249 64.8182 68.9155 63.7686C69.8042 63.3429 70.2485 63.13 70.5137 62.6695C70.6486 62.4352 70.7404 62.0967 70.7422 61.8263C70.7459 61.2949 70.4333 60.8327 69.8081 59.9083L68.378 57.7936C67.7776 56.9059 67.4775 56.462 67.1288 56.2641C66.8937 56.1306 66.7603 56.0865 66.4919 56.0535C66.094 56.0046 65.4465 56.2317 64.1515 56.6861C63.2254 57.011 62.2572 57.2156 61.2704 57.2914C59.3102 57.4422 57.3445 57.08 55.5668 56.2406C53.789 55.4012 52.2604 54.1134 51.1313 52.504C50.0022 50.8946 49.3116 49.0189 49.1273 47.0616C48.943 45.1043 49.2714 43.1327 50.0803 41.3408C50.8891 39.5489 52.1505 37.9985 53.7403 36.842C55.3302 35.6855 57.1937 34.9628 59.1476 34.745C60.1312 34.6354 61.1206 34.6556 62.091 34.8019C63.4481 35.0066 64.1266 35.1089 64.5084 34.9866C64.7659 34.9041 64.8887 34.8359 65.0948 34.6608C65.4004 34.4013 65.6124 33.9092 66.0365 32.9251L67.0468 30.5806Z" fill="#FF6600"/>
<path d="M97.3325 27.3354H113.284C117.747 27.3354 121.072 28.3547 123.258 30.3935C125.443 32.4139 126.536 35.7199 126.536 40.3117C126.536 43.4524 126.104 46.033 125.241 48.0534C124.378 50.0554 122.918 51.5431 120.861 52.5166C118.822 53.49 116.03 53.9768 112.485 53.9768H105.515V68H97.3325V27.3354ZM113.78 47.9983C115.158 47.9983 116.214 47.732 116.949 47.1993C117.683 46.6667 118.188 45.8585 118.464 44.7749C118.739 43.6912 118.877 42.3412 118.877 40.7249C118.877 39.2923 118.739 38.0066 118.464 36.8679C118.207 35.7291 117.729 34.8291 117.031 34.1679C116.333 33.4883 115.341 33.1485 114.056 33.1485H105.515V47.9983H113.78ZM127.808 38.4107H135.274V68H127.808V38.4107ZM127.753 33.5618V26.2609H135.302V33.5618H127.753ZM155.693 68.7163C152.075 68.7163 149.136 68.3673 146.877 67.6694C144.636 66.9531 142.919 65.9613 141.725 64.6939C140.531 63.4266 139.714 61.9389 139.273 60.2307C138.832 58.5226 138.612 56.6675 138.612 54.6655V41.0831C138.612 39.026 138.823 37.125 139.246 35.3801C139.687 33.6169 140.495 32.0832 141.67 30.7792C142.864 29.4751 144.591 28.4649 146.85 27.7486C149.109 27.0139 152.057 26.6466 155.693 26.6466C159.165 26.6466 161.957 27.0048 164.069 27.7211C166.199 28.419 167.816 29.4108 168.918 30.6965C170.02 31.9822 170.764 33.4975 171.149 35.2424C171.535 36.9689 171.728 38.8607 171.728 40.9178V41.4137L163.711 42.3504V40.2841C163.711 38.374 163.472 36.9046 162.994 35.876C162.517 34.8291 161.699 34.1036 160.542 33.6995C159.385 33.2771 157.769 33.0659 155.693 33.0659C153.673 33.0659 152.002 33.2679 150.679 33.672C149.375 34.0577 148.402 34.7648 147.759 35.7934C147.116 36.8036 146.795 38.2454 146.795 40.1188V55.492C146.795 57.3471 147.116 58.7706 147.759 59.7624C148.402 60.7358 149.375 61.4062 150.679 61.7736C152.002 62.1225 153.682 62.297 155.721 62.297C157.796 62.297 159.413 62.1225 160.57 61.7736C161.727 61.4062 162.535 60.7267 162.994 59.7348C163.472 58.7246 163.711 57.2553 163.711 55.3267V54.0319H171.728V54.7757C171.728 56.7777 171.544 58.6236 171.177 60.3134C170.809 62.0032 170.084 63.4817 169 64.749C167.917 65.998 166.31 66.9714 164.179 67.6694C162.048 68.3673 159.22 68.7163 155.693 68.7163ZM186.995 68.6337C183.891 68.6337 181.393 68.248 179.502 67.4765C177.628 66.6868 176.269 65.5756 175.424 64.1429C174.579 62.7103 174.157 61.0113 174.157 59.0461V47.3922C174.157 45.3718 174.662 43.6453 175.672 42.2127C176.682 40.78 178.142 39.6872 180.053 38.9342C181.981 38.1627 184.295 37.777 186.995 37.777C189.695 37.777 192 38.1627 193.91 38.9342C195.821 39.6872 197.281 40.78 198.291 42.2127C199.32 43.6453 199.834 45.3718 199.834 47.3922V59.0461C199.834 60.993 199.43 62.6919 198.622 64.1429C197.813 65.5756 196.473 66.6868 194.599 67.4765C192.744 68.248 190.209 68.6337 186.995 68.6337ZM186.995 63.4266C188.593 63.4266 189.879 63.1327 190.852 62.545C191.844 61.9389 192.34 60.8828 192.34 59.3767V47.0616C192.34 45.5555 191.872 44.5086 190.935 43.9208C189.998 43.3147 188.685 43.0116 186.995 43.0116C185.379 43.0116 184.084 43.3147 183.111 43.9208C182.137 44.5086 181.65 45.5555 181.65 47.0616V59.3767C181.65 60.8828 182.11 61.9389 183.028 62.545C183.946 63.1327 185.269 63.4266 186.995 63.4266ZM202.152 59.0736V47.2544C202.152 44.5177 203.117 42.2586 205.045 40.477C206.992 38.677 210.124 37.777 214.44 37.777C215.285 37.777 216.194 37.8781 217.168 38.0801C218.159 38.2638 219.087 38.5117 219.95 38.824V26.2609H227.444V68H222.375L221.576 66.2643C220.621 66.9439 219.482 67.5133 218.159 67.9724C216.855 68.4133 215.441 68.6337 213.917 68.6337C211.253 68.6337 209.049 68.248 207.304 67.4765C205.56 66.7051 204.265 65.6123 203.42 64.198C202.575 62.7654 202.152 61.0573 202.152 59.0736ZM219.95 62.1868V44.031C219.454 43.7922 218.775 43.5627 217.911 43.3422C217.067 43.1218 216.121 43.0116 215.074 43.0116C213.366 43.0116 212.034 43.3147 211.079 43.9208C210.124 44.5269 209.646 45.583 209.646 47.0891V59.1838C209.646 60.6899 210.087 61.7644 210.969 62.4072C211.869 63.0501 213.145 63.3715 214.798 63.3715C215.827 63.3715 216.8 63.2613 217.719 63.0409C218.637 62.8205 219.381 62.5358 219.95 62.1868ZM230.644 58.743V47.1993C230.644 44.1871 231.783 41.8637 234.06 40.229C236.356 38.5944 239.424 37.777 243.262 37.777C247.817 37.777 251.05 38.6495 252.96 40.3943C254.889 42.1392 255.853 44.4994 255.853 47.4748V54.638H238.138V59.4593C238.138 61.2042 238.588 62.3062 239.488 62.7654C240.388 63.2062 241.729 63.4266 243.51 63.4266C244.943 63.4266 246.045 63.3072 246.816 63.0684C247.588 62.8113 248.12 62.3613 248.414 61.7185C248.727 61.0573 248.883 60.1205 248.883 58.9083H255.825C255.825 61.3511 255.366 63.2797 254.448 64.6939C253.548 66.1082 252.17 67.1184 250.315 67.7245C248.479 68.3306 246.164 68.6337 243.373 68.6337C240.966 68.6337 238.799 68.3398 236.871 67.752C234.942 67.1459 233.418 66.1266 232.297 64.6939C231.195 63.2613 230.644 61.2777 230.644 58.743ZM248.772 50.0646V46.5932C248.772 45.4912 248.534 44.6922 248.056 44.1963C247.597 43.682 246.963 43.3606 246.155 43.232C245.365 43.0851 244.465 43.0116 243.455 43.0116C241.949 43.0116 240.682 43.2412 239.653 43.7004C238.643 44.1412 238.138 45.1514 238.138 46.731V50.0646H248.772ZM260.872 60.1756H269.082V68H260.872V60.1756Z" fill="white"/>
</svg>
